<svg height="512pt" viewBox="0 -62 512.001 512" width="512pt" xmlns="http://www.w3.org/2000/svg"><path d="m358.601562 7.5c-50.34375 0-96.476562 25.878906-123.402343 69.226562l135.902343 254.1875h65.40625c37.550782 0 67.992188-30.441406 67.992188-67.992187v-106.929687c0-81.878907-65.449219-148.492188-145.898438-148.492188zm0 0" fill="#3a484a"/><path d="m323.613281 381.429688h19.8125c32.859375 0 58.492188-28.445313 55.082031-61.128907l-3.773437-36.167969-143.4375-52.003906h-75.5625v79.660156l95.171875 37.578126zm0 0" fill="#fd6f71"/><path d="m470.21875 199.46875c-32.933594-25.371094-45.121094-70.074219-49.246094-91.746094-1.277344-6.71875-7.703125-11.160156-14.441406-9.988281-89.507812 15.542969-151.996094-21.445313-152.488281-21.738281-2.085938 2.832031-4.078125 5.742187-5.941407 8.746094-12.804687 20.605468-20.21875 45.050781-20.21875 71.25 0 73.625 58.519532 133.300781 130.71875 133.300781 50.261719 0 93.902344-28.925781 115.773438-71.351563.019531-.039062.039062-.078125.058594-.117187 3.242187-6.308594 1.402344-14.027344-4.214844-18.355469zm0 0" fill="#e3b098"/><path d="m253.199219 381.429688c0-58.964844-39.808594-97.601563-52.546875-108.457032h-113.613282c-12.734374 10.855469-52.542968 49.492188-52.542968 108.457032zm0 0" fill="#b6a4ff"/><path d="m80.4375 261.902344s24.132812 27.941406 0 45.007812c-11.535156 8.160156-21.9375 4.832032-29.65625-.867187-12.359375-9.125-17.171875-25.617188-10.511719-39.464844 3.300781-6.859375 9.433594-13.242187 20.609375-16.101563zm0 0" fill="#fbc4ac"/><path d="m280.183594 146.542969c0 76.792969-61.039063 139.039062-136.335938 139.039062-75.308594 0-136.347656-62.246093-136.347656-139.039062zm0 0" fill="#fbc4ac"/><path d="m280.183594 146.542969c-59.21875.007812-90.605469 55.683593-136.335938 55.683593-45.734375 0-77.121094-55.683593-136.347656-55.683593 0-76.796875 61.039062-139.042969 136.347656-139.042969 75.296875 0 136.335938 62.246094 136.335938 139.042969zm0 0" fill="#c86d5c"/><path d="m143.847656 285.582031h.085938c1.214844-.003906 2.421875-.019531 3.625-.054687.191406-.003906.378906-.015625.566406-.019532 1.074219-.035156 2.148438-.078124 3.214844-.136718.09375-.007813.1875-.015625.277344-.019532 1.175781-.066406 2.347656-.148437 3.515624-.25h.015626c1.234374-.101562 2.464843-.222656 3.691406-.359374h.003906c-68.242188-7.617188-121.34375-66.578126-121.34375-138.199219h-30c0 6 .371094 11.910156 1.09375 17.707031 8.53125 68.429688 65.832031 121.332031 135.253906 121.332031zm0 0" fill="#e3b098"/><path d="m37.5 146.542969c0-71.625 53.101562-130.585938 121.347656-138.199219-2.398437-.269531-4.816406-.472656-7.25-.613281-.082031-.007813-.164062-.011719-.25-.015625-1.078125-.0625-2.164062-.105469-3.25-.140625-.179687-.003907-.355468-.015625-.53125-.019531-1.238281-.035157-2.476562-.054688-3.71875-.054688-75.308594 0-136.347656 62.246094-136.347656 139.042969 10.886719 0 20.828125 1.882812 30.09375 4.953125-.054688-1.644532-.09375-3.296875-.09375-4.953125zm0 0" fill="#ad4f3d"/><path d="m236.394531 355.003906c2.519531 2.519532 5.527344 4.632813 8.964844 6.1875 42.160156 19.0625 74.683594 20.175782 78.253906 20.238282l1.320313-60.730469c-.234375-.007813-23.773438-.945313-54.546875-14.859375-15.285157-6.910156-33.277344-.121094-40.1875 15.164062-5.355469 11.84375-2.484375 25.320313 6.195312 34zm0 0" fill="#fbc4ac"/><path d="m324.503906 138.050781c-3.5625-2.109375-8.164062-.933593-10.273437 2.632813l-5.996094 10.132812c-2.113281 3.566406-.933594 8.167969 2.632813 10.273438 1.199218.710937 2.515624 1.046875 3.8125 1.046875 2.5625 0 5.0625-1.3125 6.460937-3.679688l6-10.132812c2.109375-3.566407.929687-8.164063-2.636719-10.273438zm0 0"/><path d="m436.496094 204.332031c-3.5625-2.109375-8.164063-.929687-10.273438 2.632813l-5.996094 10.132812c-2.113281 3.566406-.933593 8.167969 2.632813 10.277344 1.199219.707031 2.511719 1.046875 3.8125 1.046875 2.5625 0 5.0625-1.316406 6.460937-3.683594l6-10.132812c2.109376-3.5625.929688-8.164063-2.636718-10.273438zm0 0"/><path d="m382.574219 188.128906c-3.636719 1.199219-7.75.691406-11.273438-1.394531-3.523437-2.085937-5.945312-5.441406-6.648437-9.210937-.757813-4.070313-4.667969-6.761719-8.742188-6-4.074218.753906-6.761718 4.671874-6.003906 8.742187 1.492188 8.023437 6.507812 15.085937 13.753906 19.378906 4.609375 2.726563 9.765625 4.121094 14.898438 4.121094 2.945312 0 5.882812-.457031 8.707031-1.386719 3.933594-1.296875 6.074219-5.535156 4.78125-9.46875-1.296875-3.9375-5.535156-6.074218-9.472656-4.78125zm0 0"/><path d="m358.601562 0c-8.484374 0-17.023437.714844-25.386718 2.125-4.082032.6875-6.835938 4.558594-6.148438 8.640625.6875 4.085937 4.5625 6.839844 8.644532 6.152344 7.539062-1.273438 15.242187-1.917969 22.890624-1.917969 76.3125 0 138.398438 63.25 138.398438 140.992188v106.929687c0 33.355469-27.136719 60.492187-60.492188 60.492187h-30.257812c-.003906-.105468-.011719-.207031-.019531-.3125-.007813-.222656-.023438-.441406-.035157-.664062-.054687-.976562-.125-1.949219-.226562-2.914062l-3.140625-30.097657c.113281-.039062.230469-.085937.347656-.125 30.46875-10.535156 56.703125-31.726562 73.753907-60.527343.460937-.773438.917968-1.554688 1.363281-2.339844.238281-.421875.476562-.84375.710937-1.265625.6875-1.238281 1.359375-2.484375 2.011719-3.742188l.089844-.175781c4.875-9.488281 2.222656-21.148438-6.308594-27.722656-4.933594-3.800782-9.375-8.101563-13.375-12.71875-21.582031-24.945313-30.171875-59.203125-33.082031-74.488282-.484375-2.554687-1.496094-5.03125-2.925782-7.199218-.019531-.039063-.046874-.074219-.066406-.109375-3.152344-4.746094-8.238281-8.007813-14.035156-8.777344-3.953125-.523437-7.859375.4375-11.746094 1.023437-7.890625 1.183594-15.851562 2.007813-23.820312 2.414063-50.125 2.648437-88.488282-10.652344-106.019532-18.304687-.054687-.023438-.113281-.046876-.167968-.070313-3.226563-5.898437-6.855469-11.578125-10.84375-16.960937 12.925781-13.746094 28.632812-24.816407 45.75-32.203126 3.804687-1.640624 5.558594-6.054687 3.917968-9.855468-1.640624-3.804688-6.058593-5.554688-9.859374-3.917969-18.4375 7.957031-35.386719 19.753906-49.46875 34.371094-26.277344-28.730469-63.714844-46.730469-105.207032-46.730469-36.835937 0-71.875 14.175781-98.667968 39.910156-2.988282 2.871094-3.082032 7.621094-.210938 10.605469 2.867188 2.984375 7.617188 3.082031 10.601562.210937 23.984376-23.039062 55.332032-35.726562 88.273438-35.726562 55.492188 0 102.894531 36.007812 120.992188 86.335938 4.253906 11.828124 6.761718 24.214843 7.574218 36.753906.027344.417968.046875.832031.066406 1.246094-.289062.023437-.574218.054687-.863281.082031-10.285156.882812-20.398437 3.429687-29.996093 7.199219-15.359376 6.03125-29.195313 15.105468-42.859376 24.21875-18.40625 12.285156-35.792968 23.890624-54.914062 23.890624-19.117188 0-36.5-11.605468-54.90625-23.890624-17.597656-11.746094-35.65625-23.3125-56.386719-28.621094-5.683593-1.453125-11.511719-2.433594-17.363281-2.878906 1.265625-23.949219 8.839844-46.894532 22.09375-66.757813 2.300781-3.445313 1.371094-8.101563-2.074219-10.402344-3.445312-2.296875-8.101562-1.371093-10.402343 2.078125-16.226563 24.320313-24.804688 52.773438-24.804688 82.285156 0 40.882813 16.523438 77.902344 43.117188 104.507813-4.023438 3.300781-7.25 7.394531-9.601563 12.28125-7.988281 16.597656-2.8125 36.8125 12.277344 48.335937-12.464844 22.058594-18.796875 45.492188-18.796875 69.765626 0 4.140624 3.359375 7.5 7.5 7.5h218.703125c4.144531 0 7.5-3.359376 7.5-7.5 0-1.980469-.058594-3.972657-.148438-5.960938 34.457031 12.535156 59.738281 13.402344 62.925781 13.460938h.136719 19.8125c17.785157 0 34.8125-7.578126 46.714844-20.789063 7.621094-8.457031 12.714844-18.765625 14.917969-29.726563h31.453125c41.625 0 75.488281-33.867187 75.488281-75.492187v-106.929687c0-86.015626-68.8125-155.992188-153.398438-155.992188zm108.773438 207.292969c1.359375 2.113281 1.574219 4.792969.429688 7.027343-1.605469 3.089844-3.316407 6.125-5.160157 9.078126-14.355469 23.023437-35.8125 40.824218-60.765625 50.40625-19.554687 7.511718-41.164062 9.855468-61.855468 6.539062-19.652344-3.144531-38.453126-11.015625-54.375-22.996094-9.496094-7.148437-17.960938-15.636718-25.074219-25.160156 14.742187-20.78125 23.671875-44.644531 26.285156-69.964844 2.027344-19.335937.277344-39.0625-5.214844-57.71875-.945312-3.207031-2-6.4375-3.164062-9.589844 19.71875 6.9375 48.695312 14.128907 84.082031 14.128907 15.15625 0 30.324219-1.328125 45.253906-3.921875 2.648438-.460938 5.289063 1.359375 5.792969 4 .503906 2.664062 1.0625 5.316406 1.667969 7.957031 7.066406 31.261719 21.019531 63.003906 45.621094 84.417969 2.054687 1.804687 4.988281 3.46875 6.476562 5.796875zm-452.148438-52.898438c.054688.007813.113282.007813.167969.015625 8.949219.828125 17.738281 3.167969 26.070313 6.503906 14.015625 5.605469 26.648437 14.058594 39.148437 22.402344 20.347657 13.582032 39.570313 26.410156 63.234375 26.410156 23.664063 0 42.886719-12.828124 63.242188-26.414062 14.753906-9.847656 29.75-19.734375 46.796875-25.140625 6-1.898437 12.144531-3.136719 18.402343-3.761719.050782-.003906.097657-.007812.144532-.011718-.132813 2.382812-.328125 4.761718-.585938 7.132812-6.832031 61.222656-54.992187 109.820312-115.210937 115.90625-8.324219.84375-17.113281.851562-25.582031 0-62.546876-6.324219-112.085938-58.496094-115.828126-123.042969zm31.804688 115.4375c1.722656-3.582031 4.152344-6.394531 7.375-8.519531 8.480469 6.867188 17.664062 12.726562 27.394531 17.472656.015625.042969.035157.085938.050781.132813 1.253907 3.25 2.097657 6.804687 1.746094 10.304687-.839844 8.421875-10.351562 15.875-18.699218 14.988282-3.546876-.375-6.828126-2.109376-9.660157-4.199219-9.71875-7.175781-13.167969-19.867188-8.207031-30.179688zm198.058594 99.445313c.152344 1.550781.277344 3.101562.375 4.652344h-31.558594v-29.453126c0-4.144531-3.359375-7.5-7.5-7.5s-7.5 3.355469-7.5 7.5v29.453126h-110.121094v-29.453126c0-4.144531-3.355468-7.5-7.5-7.5-4.140625 0-7.5 3.355469-7.5 7.5v29.453126h-31.5625c1.171875-19.222657 6.867188-37.855469 16.980469-55.546876.542969.136719 1.085937.257813 1.632813.363282 8.1875 1.59375 16.355468-.636719 23.203124-5.210938 5.570313-3.71875 10.226563-8.9375 12.648438-15.230468 1.539062-3.992188 2.132812-8.308594 1.894531-12.574219 0-.015625 0-.035157 0-.050781 15.683594 5.308593 32.402344 7.835937 48.957031 7.351562.074219 0 .148438-.003906.222657-.007812 17.859375-.480469 35.152343-4.246094 51.523437-11.230469.183594.167969.363282.332031.554688.507812.132812.125.261718.246094.398437.375 7.828125 7.351563 14.882813 15.550781 21.035157 24.351563.007812.011718.015624.023437.027343.035156 1.460938 2.09375 2.910157 4.289062 4.335938 6.578125.175781.28125-2.105469 3.898437-2.273438 4.269531-6.457031 14.28125-3.351562 31.316406 7.726563 42.394532 4.019531 4.019531 8.832031 6.71875 14 8.972656zm6.292968-57.695313c5.207032-1.488281 10.894532-1.179687 15.914063 1.089844 21.914063 9.910156 40.285156 13.507813 49.984375 14.804687l-.996094 45.964844c-11.226562-1.105468-33.683594-4.6875-61.304687-16.246094-.019531-.007812-.035157-.019531-.054688-.027343-7.046875-2.949219-13.640625-5.953125-17.328125-13.078125-6.507812-12.578125.191406-28.429688 13.742188-32.492188.015625-.007812.027344-.011718.042968-.015625zm127.613282 46.519531c-9.0625 10.058594-22.027344 15.828126-35.570313 15.828126h-12.148437s1.152344-53 1.152344-53.070313c.085937-3.921875-3.136719-7.488281-7.207032-7.65625-.195312-.007813-17.4375-.820313-41.195312-9.820313-8.679688-3.285156-16.59375-7.75-26.132813-7.75-7.503906 0-15.335937 2.398438-21.621093 6.765626.441406-.34375-8.222657-11.464844-9.25-12.75-3.925782-4.921876-8.121094-9.640626-12.574219-14.097657-.28125-.285156-.566407-.570312-.84375-.84375 13.976562-7.921875 26.65625-18.230469 37.363281-30.382812-.398438.457031 8.417969 9.675781 9.253906 10.539062 10.46875 10.800781 22.863282 20.074219 36.375 26.929688 17.167969 8.714843 36.144532 13.984375 55.414063 14.828125 11.910156.523437 23.902343-.410156 35.558593-2.9375.203126-.042969.40625-.082032.609376-.125 0 0 2.871093 27.519531 2.871093 27.53125 1.035157 13.390625-2.871093 26.820312-12.054687 37.011718zm0 0"/></svg>